<svg width="380" height="380" viewBox="0 0 380 380" fill="none" xmlns="http://www.w3.org/2000/svg">
<g clip-path="url(#clip0_36_80)">
<rect width="380" height="380" rx="190" fill="white"/>
<circle cx="190" cy="190" r="204" fill="#D2F5F8"/>
<rect x="-13" y="109" width="305" height="278" rx="10" fill="#FCFCFC"/>
<path d="M-7 129C-7 117.954 1.9543 109 13 109H282C287.523 109 292 113.477 292 119V161H-7V129Z" fill="#E9E9E9"/>
<rect x="-207.5" y="169.5" width="355" height="41" rx="20.5" stroke="#E9E9E9"/>
<circle cx="237.5" cy="174.5" r="5.5" fill="#E9E9E9"/>
<circle cx="237.5" cy="189.5" r="5.5" fill="#E9E9E9"/>
<circle cx="237.5" cy="204.5" r="5.5" fill="#E9E9E9"/>
<line x1="-8.17951" y1="222.86" x2="281.998" y2="221.547" stroke="#E9E9E9"/>
<rect x="-37" y="285" width="201" height="133" rx="10" fill="#E9E9E9"/>
<g clip-path="url(#clip1_36_80)">
<g clip-path="url(#clip2_36_80)">
<rect x="164" y="164" width="52" height="52" rx="26" fill="#FEFEFE"/>
<path d="M180.581 207.618C180.443 207.616 180.258 207.51 180.179 207.387C180.126 207.303 180.106 207.22 180.035 206.775C179.937 206.154 179.855 205.375 179.838 204.9C179.801 203.87 179.825 200.328 179.884 198.389C179.928 196.906 179.971 195.648 179.999 195.004C180.016 194.625 180.048 193.902 180.07 193.399C180.091 192.896 180.122 192.286 180.139 192.043C180.274 190.038 180.337 189.278 180.497 187.767C180.871 184.234 181.338 181.397 181.987 178.72C182.609 176.153 183.477 173.922 184.196 173.046C184.34 172.872 184.612 172.622 184.749 172.54C185.041 172.366 185.405 172.332 185.683 172.454C186.017 172.599 186.177 172.835 186.406 173.519C186.758 174.57 186.942 175.818 186.998 177.552C187.005 177.737 187.015 178.051 187.022 178.25C187.047 178.958 187.08 181.161 187.099 183.322C187.111 184.689 187.134 186.203 187.168 187.808C187.174 188.129 187.198 188.851 187.22 189.411C187.243 189.971 187.27 190.668 187.281 190.959C187.307 191.609 187.461 194.294 187.522 195.119C187.599 196.193 187.713 197.282 187.819 197.967C187.864 198.255 188.004 198.983 188.017 198.992C188.02 198.994 188.09 198.794 188.173 198.547C188.43 197.781 188.725 196.624 189.498 193.354C190.093 190.834 190.691 188.724 191.212 187.304C191.731 185.893 192.351 184.698 192.9 184.053C193.245 183.648 193.558 183.415 193.925 183.291C194.466 183.109 194.959 183.188 195.388 183.526C195.788 183.841 196.164 184.471 196.729 185.773C197.274 187.027 197.528 187.482 197.888 187.845C198.306 188.267 198.665 188.346 199.379 188.169C200.055 188.003 200.528 187.737 201.278 187.105C201.57 186.858 202.7 185.746 203.628 184.79C204.738 183.647 205.843 182.529 206.001 182.391C206.801 181.69 207.046 181.494 207.174 181.451C207.519 181.337 207.869 181.62 207.823 181.976C207.8 182.156 207.745 182.229 207.42 182.504C206.767 183.057 206.519 183.285 206.053 183.76C205.786 184.033 205.295 184.533 204.962 184.871C204.629 185.209 204.349 185.497 204.34 185.512C204.316 185.547 202.586 187.279 202.352 187.501C201.802 188.027 201.106 188.546 200.627 188.789C200.164 189.024 199.55 189.205 199.035 189.259C198.175 189.349 197.449 188.991 196.846 188.182C196.556 187.791 196.276 187.269 195.93 186.469C195.281 184.971 194.917 184.351 194.619 184.233C194.51 184.19 194.283 184.213 194.158 184.279C193.587 184.585 192.823 185.867 192.186 187.592C191.676 188.975 191.137 190.855 190.568 193.231C190.44 193.77 190.183 194.844 189.998 195.618C189.346 198.348 188.955 199.603 188.624 200.034C188.402 200.323 188.132 200.455 187.837 200.42C187.547 200.386 187.368 200.198 187.193 199.745C186.966 199.156 186.754 197.933 186.605 196.335C186.432 194.493 186.197 189.952 186.152 187.625C186.143 187.146 186.134 186.679 186.132 186.586C186.111 185.752 186.093 184.372 186.079 182.422C186.063 180.233 186.003 177.739 185.939 176.626C185.874 175.516 185.665 174.411 185.361 173.582L185.294 173.399L185.235 173.436C185.202 173.457 185.115 173.54 185.042 173.622C184.647 174.063 184.203 174.992 183.733 176.358C183.477 177.101 183.46 177.153 183.275 177.806C182.437 180.766 181.744 184.965 181.344 189.496C181.288 190.137 181.099 192.727 181.107 192.751C181.108 192.756 181.093 193.146 181.072 193.617C180.986 195.634 180.971 196.02 180.925 197.509C180.841 200.213 180.806 203.815 180.852 204.906C180.873 205.398 180.937 205.993 181.04 206.651C181.13 207.225 181.122 207.297 180.957 207.463C180.842 207.577 180.738 207.621 180.581 207.618Z" fill="url(#paint0_linear_36_80)" stroke="url(#paint1_linear_36_80)" stroke-width="1.6" stroke-miterlimit="2" stroke-linejoin="round"/>
<path fill-rule="evenodd" clip-rule="evenodd" d="M176.24 167.973C188.397 160.379 204.432 164.083 212.027 176.24C219.621 188.397 215.917 204.432 203.76 212.027C191.603 219.621 175.568 215.917 167.973 203.76C160.379 191.603 164.083 175.567 176.24 167.973ZM176.664 168.652C164.881 176.012 161.291 191.554 168.652 203.336C176.012 215.118 191.554 218.709 203.336 211.348C215.119 203.988 218.709 188.446 211.348 176.664C203.988 164.881 188.446 161.291 176.664 168.652Z" fill="url(#paint2_linear_36_80)"/>
</g>
</g>
<rect x="149" y="176" width="4" height="16" rx="2" transform="rotate(-90 149 176)" fill="#4EBE9D"/>
<rect x="170" y="151" width="4" height="16" rx="2" fill="#4EBE9D"/>
<rect x="154" y="158.828" width="4" height="16" rx="2" transform="rotate(-45 154 158.828)" fill="#4EBE9D"/>
</g>
<defs>
<linearGradient id="paint0_linear_36_80" x1="175.21" y1="192.579" x2="207.775" y2="181.678" gradientUnits="userSpaceOnUse">
<stop stop-color="#4EBE9D"/>
<stop offset="1" stop-color="#121138"/>
</linearGradient>
<linearGradient id="paint1_linear_36_80" x1="175.21" y1="192.579" x2="207.775" y2="181.678" gradientUnits="userSpaceOnUse">
<stop stop-color="#4EBE9D"/>
<stop offset="1" stop-color="#121138"/>
</linearGradient>
<linearGradient id="paint2_linear_36_80" x1="167.973" y1="203.76" x2="212.027" y2="176.24" gradientUnits="userSpaceOnUse">
<stop stop-color="#4EBE9D"/>
<stop offset="1" stop-color="#121138"/>
</linearGradient>
<clipPath id="clip0_36_80">
<rect width="380" height="380" rx="190" fill="white"/>
</clipPath>
<clipPath id="clip1_36_80">
<rect width="64" height="64" fill="white" transform="translate(158 158)"/>
</clipPath>
<clipPath id="clip2_36_80">
<rect width="64" height="64" fill="white" transform="translate(158 158)"/>
</clipPath>
</defs>
</svg>
