<svg width="526" height="300" viewBox="0 0 526 300" fill="none" xmlns="http://www.w3.org/2000/svg">
<g clip-path="url(#clip0_72_177)">
<rect width="526" height="300" fill="white"/>
<rect width="526" height="300" fill="url(#paint0_linear_72_177)"/>
<g clip-path="url(#clip1_72_177)">
<g clip-path="url(#clip2_72_177)">
<path d="M230.622 210.563C230.149 210.556 229.512 210.19 229.241 209.767C229.058 209.478 228.99 209.193 228.747 207.663C228.409 205.531 228.126 202.851 228.068 201.219C227.94 197.679 228.024 185.503 228.225 178.837C228.377 173.741 228.525 169.416 228.622 167.202C228.681 165.898 228.79 163.414 228.864 161.685C228.939 159.955 229.045 157.856 229.102 157.023C229.567 150.13 229.785 147.518 230.335 142.323C231.621 130.18 233.226 120.428 235.456 111.225C237.594 102.399 240.578 94.7333 243.049 91.722C243.542 91.1218 244.48 90.2645 244.95 89.982C245.953 89.383 247.205 89.2675 248.162 89.6858C249.308 90.1852 249.857 90.9948 250.644 93.3464C251.856 96.959 252.487 101.25 252.683 107.21C252.704 107.846 252.741 108.925 252.764 109.609C252.849 112.043 252.961 119.615 253.028 127.043C253.069 131.743 253.149 136.947 253.264 142.465C253.285 143.57 253.368 146.049 253.444 147.976C253.522 149.901 253.617 152.296 253.655 153.297C253.742 155.531 254.274 164.76 254.481 167.597C254.748 171.288 255.139 175.03 255.504 177.388C255.656 178.376 256.139 180.879 256.183 180.909C256.194 180.916 256.436 180.23 256.719 179.381C257.603 176.747 258.617 172.771 261.273 161.53C263.319 152.866 265.376 145.613 267.168 140.732C268.951 135.881 271.083 131.773 272.968 129.557C274.154 128.164 275.232 127.364 276.492 126.938C278.354 126.311 280.048 126.584 281.521 127.745C282.896 128.827 284.188 130.995 286.131 135.469C288.004 139.781 288.878 141.346 290.115 142.594C291.551 144.044 292.785 144.313 295.239 143.706C297.563 143.134 299.189 142.222 301.767 140.05C302.773 139.199 306.655 135.376 309.845 132.09C313.661 128.162 317.462 124.319 318.004 123.845C320.752 121.434 321.594 120.76 322.036 120.614C323.222 120.221 324.427 121.194 324.268 122.418C324.188 123.037 323.998 123.288 322.88 124.233C320.636 126.135 319.784 126.919 318.184 128.549C317.263 129.488 315.576 131.208 314.432 132.369C313.289 133.531 312.326 134.522 312.293 134.571C312.211 134.692 306.265 140.645 305.462 141.411C303.569 143.218 301.179 145.001 299.531 145.837C297.94 146.643 295.827 147.268 294.059 147.452C291.101 147.761 288.605 146.531 286.534 143.75C285.535 142.407 284.574 140.613 283.384 137.863C281.152 132.712 279.904 130.58 278.877 130.175C278.502 130.026 277.724 130.106 277.294 130.335C275.33 131.386 272.704 135.794 270.516 141.723C268.76 146.477 266.907 152.939 264.954 161.106C264.511 162.959 263.629 166.651 262.995 169.31C260.752 178.698 259.409 183.011 258.272 184.491C257.507 185.485 256.579 185.94 255.564 185.817C254.57 185.7 253.955 185.055 253.353 183.499C252.569 181.475 251.844 177.271 251.331 171.776C250.737 165.443 249.927 149.835 249.774 141.836C249.743 140.19 249.71 138.584 249.703 138.265C249.631 135.399 249.571 130.654 249.522 123.95C249.468 116.426 249.262 107.852 249.04 104.027C248.819 100.213 248.099 96.4144 247.053 93.5635L246.823 92.9336L246.62 93.0612C246.506 93.1333 246.209 93.4194 245.957 93.7011C244.601 95.2164 243.074 98.4085 241.456 103.106C240.576 105.659 240.52 105.839 239.885 108.083C237.003 118.257 234.619 132.693 233.246 148.268C233.052 150.472 232.402 159.375 232.43 159.458C232.436 159.475 232.383 160.813 232.312 162.435C232.013 169.367 231.963 170.694 231.804 175.812C231.517 185.107 231.396 197.49 231.553 201.239C231.625 202.932 231.847 204.976 232.2 207.237C232.51 209.21 232.483 209.458 231.914 210.029C231.52 210.422 231.162 210.571 230.622 210.563Z" fill="#FEFEFE" stroke="#FEFEFE" stroke-width="5" stroke-miterlimit="2" stroke-linejoin="round"/>
<path fill-rule="evenodd" clip-rule="evenodd" d="M215.7 74.2828C257.489 48.1772 312.611 60.9103 338.717 102.7C364.823 144.489 352.089 199.611 310.3 225.717C268.511 251.822 213.389 239.089 187.283 197.3C161.177 155.511 173.911 100.388 215.7 74.2828ZM217.157 76.6151C176.655 101.917 164.314 155.341 189.615 195.843C214.917 236.345 268.341 248.686 308.843 223.384C349.345 198.083 361.686 144.659 336.385 104.157C311.083 63.6546 257.659 51.3136 217.157 76.6151Z" fill="#FEFEFE"/>
</g>
</g>
</g>
<defs>
<linearGradient id="paint0_linear_72_177" x1="0" y1="150" x2="526" y2="150" gradientUnits="userSpaceOnUse">
<stop stop-color="#4EBE9D"/>
<stop offset="1" stop-color="#121138"/>
</linearGradient>
<clipPath id="clip0_72_177">
<rect width="526" height="300" fill="white"/>
</clipPath>
<clipPath id="clip1_72_177">
<rect width="220" height="220" fill="white" transform="translate(153 40)"/>
</clipPath>
<clipPath id="clip2_72_177">
<rect width="220" height="220" fill="white" transform="translate(153 40)"/>
</clipPath>
</defs>
</svg>
