<svg width="380" height="380" viewBox="0 0 380 380" fill="none" xmlns="http://www.w3.org/2000/svg">
<g clip-path="url(#clip0_41_110)">
<rect width="380" height="380" rx="190" fill="white"/>
<circle cx="190" cy="190" r="204" fill="#D2F5F8"/>
<rect x="110" y="219" width="160" height="160" rx="5" fill="#154534"/>
<rect x="22" y="207.547" width="180" height="40" rx="5" transform="rotate(-39.9358 22 207.547)" fill="#154534"/>
<path d="M43.2222 139.795C40.9224 148.061 45.1694 156.771 53.1438 158.989C58.3744 160.444 64.3493 159.055 69.1624 157.257C74.0501 155.43 78.1311 153.031 79.7516 152.023C81.0544 151.214 81.5155 149.556 80.8182 148.19C79.9508 146.49 77.6956 142.327 74.4533 138.239C71.2605 134.214 66.8616 129.938 61.631 128.483C53.6565 126.264 45.5219 131.529 43.2222 139.795Z" stroke="#154534" stroke-width="4"/>
<path d="M90.3179 100.367C98.8598 99.5566 106.686 105.269 107.468 113.509C107.981 118.914 105.562 124.552 102.946 128.974C100.288 133.464 97.2083 137.059 95.9317 138.477C94.9054 139.617 93.1925 139.78 91.9701 138.853C90.4497 137.7 86.7485 134.748 83.2942 130.838C79.8927 126.987 76.4575 121.905 75.9448 116.499C75.1631 108.259 81.776 101.177 90.3179 100.367Z" stroke="#154534" stroke-width="4"/>
<rect x="110" y="310" width="20" height="160" transform="rotate(-90 110 310)" fill="#8FCAB8"/>
<rect x="180" y="219" width="20" height="160" fill="#8FCAB8"/>
<rect x="81.8076" y="157.477" width="24" height="40" transform="rotate(-39.9358 81.8076 157.477)" fill="#8FCAB8"/>
<rect x="225" y="77" width="16" height="60" rx="8" fill="#8FCAB8"/>
<rect x="273" y="185" width="16" height="60" rx="8" transform="rotate(-90 273 185)" fill="#8FCAB8"/>
<rect x="300.71" y="98" width="16" height="60" rx="8" transform="rotate(45 300.71 98)" fill="#8FCAB8"/>
<g clip-path="url(#clip1_41_110)">
<g clip-path="url(#clip2_41_110)">
<rect x="164" y="274" width="52" height="52" rx="26" fill="#FEFEFE"/>
<path d="M180.581 317.618C180.443 317.616 180.258 317.51 180.179 317.387C180.126 317.303 180.106 317.22 180.035 316.775C179.937 316.154 179.855 315.375 179.838 314.9C179.801 313.87 179.825 310.328 179.884 308.389C179.928 306.906 179.971 305.648 179.999 305.004C180.016 304.625 180.048 303.902 180.07 303.399C180.091 302.896 180.122 302.286 180.139 302.043C180.274 300.038 180.337 299.278 180.497 297.767C180.871 294.234 181.338 291.397 181.987 288.72C182.609 286.153 183.477 283.922 184.196 283.046C184.34 282.872 184.612 282.622 184.749 282.54C185.041 282.366 185.405 282.332 185.683 282.454C186.017 282.599 186.177 282.835 186.406 283.519C186.758 284.57 186.942 285.818 186.998 287.552C187.005 287.737 187.015 288.051 187.022 288.25C187.047 288.958 187.08 291.161 187.099 293.322C187.111 294.689 187.134 296.203 187.168 297.808C187.174 298.129 187.198 298.851 187.22 299.411C187.243 299.971 187.27 300.668 187.281 300.959C187.307 301.609 187.461 304.294 187.522 305.119C187.599 306.193 187.713 307.282 187.819 307.967C187.864 308.255 188.004 308.983 188.017 308.992C188.02 308.994 188.09 308.794 188.173 308.547C188.43 307.781 188.725 306.624 189.498 303.354C190.093 300.834 190.691 298.724 191.212 297.304C191.731 295.893 192.351 294.698 192.9 294.053C193.245 293.648 193.558 293.415 193.925 293.291C194.466 293.109 194.959 293.188 195.388 293.526C195.788 293.841 196.164 294.471 196.729 295.773C197.274 297.027 197.528 297.482 197.888 297.845C198.306 298.267 198.665 298.346 199.379 298.169C200.055 298.003 200.528 297.737 201.278 297.105C201.57 296.858 202.7 295.746 203.628 294.79C204.738 293.647 205.843 292.529 206.001 292.391C206.801 291.69 207.046 291.494 207.174 291.451C207.519 291.337 207.869 291.62 207.823 291.976C207.8 292.156 207.745 292.229 207.42 292.504C206.767 293.057 206.519 293.285 206.053 293.76C205.786 294.033 205.295 294.533 204.962 294.871C204.629 295.209 204.349 295.497 204.34 295.512C204.316 295.547 202.586 297.279 202.352 297.501C201.802 298.027 201.106 298.546 200.627 298.789C200.164 299.024 199.55 299.205 199.035 299.259C198.175 299.349 197.449 298.991 196.846 298.182C196.556 297.791 196.276 297.269 195.93 296.469C195.281 294.971 194.917 294.351 194.619 294.233C194.51 294.19 194.283 294.213 194.158 294.279C193.587 294.585 192.823 295.867 192.186 297.592C191.676 298.975 191.137 300.855 190.568 303.231C190.44 303.77 190.183 304.844 189.998 305.618C189.346 308.348 188.955 309.603 188.624 310.034C188.402 310.323 188.132 310.455 187.837 310.42C187.547 310.386 187.368 310.198 187.193 309.745C186.966 309.156 186.754 307.933 186.605 306.335C186.432 304.493 186.197 299.952 186.152 297.625C186.143 297.146 186.134 296.679 186.132 296.586C186.111 295.752 186.093 294.372 186.079 292.422C186.063 290.233 186.003 287.739 185.939 286.626C185.874 285.516 185.665 284.411 185.361 283.582L185.294 283.399L185.235 283.436C185.202 283.457 185.115 283.54 185.042 283.622C184.647 284.063 184.203 284.992 183.733 286.358C183.477 287.101 183.46 287.153 183.275 287.806C182.437 290.766 181.744 294.965 181.344 299.496C181.288 300.137 181.099 302.727 181.107 302.751C181.108 302.756 181.093 303.146 181.072 303.617C180.986 305.634 180.971 306.02 180.925 307.509C180.841 310.213 180.806 313.815 180.852 314.906C180.873 315.398 180.937 315.993 181.04 316.651C181.13 317.225 181.122 317.297 180.957 317.463C180.842 317.577 180.738 317.621 180.581 317.618Z" fill="url(#paint0_linear_41_110)" stroke="url(#paint1_linear_41_110)" stroke-width="1.6" stroke-miterlimit="2" stroke-linejoin="round"/>
<path fill-rule="evenodd" clip-rule="evenodd" d="M176.24 277.973C188.397 270.378 204.432 274.083 212.027 286.24C219.621 298.396 215.917 314.432 203.76 322.026C191.603 329.621 175.568 325.917 167.973 313.76C160.379 301.603 164.083 285.567 176.24 277.973ZM176.664 278.651C164.881 286.012 161.291 301.553 168.652 313.336C176.012 325.118 191.554 328.708 203.336 321.348C215.119 313.987 218.709 298.446 211.348 286.663C203.988 274.881 188.446 271.291 176.664 278.651Z" fill="url(#paint2_linear_41_110)"/>
</g>
</g>
</g>
<defs>
<linearGradient id="paint0_linear_41_110" x1="175.21" y1="302.579" x2="207.775" y2="291.678" gradientUnits="userSpaceOnUse">
<stop stop-color="#4EBE9D"/>
<stop offset="1" stop-color="#121138"/>
</linearGradient>
<linearGradient id="paint1_linear_41_110" x1="175.21" y1="302.579" x2="207.775" y2="291.678" gradientUnits="userSpaceOnUse">
<stop stop-color="#4EBE9D"/>
<stop offset="1" stop-color="#121138"/>
</linearGradient>
<linearGradient id="paint2_linear_41_110" x1="167.973" y1="313.76" x2="212.027" y2="286.24" gradientUnits="userSpaceOnUse">
<stop stop-color="#4EBE9D"/>
<stop offset="1" stop-color="#121138"/>
</linearGradient>
<clipPath id="clip0_41_110">
<rect width="380" height="380" rx="190" fill="white"/>
</clipPath>
<clipPath id="clip1_41_110">
<rect width="64" height="64" fill="white" transform="translate(158 268)"/>
</clipPath>
<clipPath id="clip2_41_110">
<rect width="64" height="64" fill="white" transform="translate(158 268)"/>
</clipPath>
</defs>
</svg>
