<svg width="480" height="380" viewBox="0 0 480 380" fill="none" xmlns="http://www.w3.org/2000/svg">
<g clip-path="url(#clip0_37_205)">
<path d="M0 10C0 4.47716 4.47715 0 10 0H470C475.523 0 480 4.47715 480 10V380H0V10Z" fill="#FCFCFC"/>
<path d="M0 10C0 4.47715 4.47715 0 10 0H470C475.523 0 480 4.47715 480 10V32H0V10Z" fill="#E9E9E9"/>
<rect x="48.5" y="97.5" width="383" height="107" rx="9.5" stroke="#E9E9E9"/>
<rect x="48.5" y="248.5" width="161" height="107" rx="9.5" stroke="#E9E9E9"/>
<rect x="270.5" y="248.5" width="161" height="107" rx="9.5" stroke="#E9E9E9"/>
<path d="M48 107C48 101.477 52.4772 97 58 97H422C427.523 97 432 101.477 432 107V117H48V107Z" fill="#E9E9E9"/>
<path d="M48 258C48 252.477 52.4772 248 58 248H200C205.523 248 210 252.477 210 258V268H48V258Z" fill="#E9E9E9"/>
<path d="M270 258C270 252.477 274.477 248 280 248H422C427.523 248 432 252.477 432 258V268H270V258Z" fill="#E9E9E9"/>
<rect x="51" y="100" width="18" height="14" rx="3" fill="#FCFCFC"/>
<rect x="51" y="251" width="14" height="14" rx="7" fill="#FCFCFC"/>
<rect x="273" y="251" width="14" height="14" rx="7" fill="#FCFCFC"/>
<rect x="77" y="105" width="64" height="4" rx="2" fill="#FCFCFC"/>
<rect x="73" y="256" width="64" height="4" rx="2" fill="#FCFCFC"/>
<rect x="295" y="256" width="64" height="4" rx="2" fill="#FCFCFC"/>
<rect x="145" y="151" width="64" height="4" rx="2" fill="#E9E9E9"/>
<rect x="96" y="280" width="94" height="4" rx="2" fill="#E9E9E9"/>
<rect x="96" y="294" width="42" height="4" rx="2" fill="#E9E9E9"/>
<rect x="146" y="294" width="56" height="4" rx="2" fill="#E9E9E9"/>
<rect x="96" y="308" width="54" height="4" rx="2" fill="#E9E9E9"/>
<rect x="153" y="308" width="16" height="4" rx="2" fill="#E9E9E9"/>
<rect x="352" y="151" width="64" height="4" rx="2" fill="#E9E9E9"/>
<rect x="145" y="179" width="24" height="4" rx="2" fill="#E9E9E9"/>
<rect x="352" y="179" width="24" height="4" rx="2" fill="#E9E9E9"/>
<rect x="173" y="179" width="16" height="4" rx="2" fill="#E9E9E9"/>
<rect x="380" y="179" width="16" height="4" rx="2" fill="#E9E9E9"/>
<rect x="145" y="135" width="64" height="8" rx="4" fill="#E9E9E9"/>
<rect x="352" y="135" width="64" height="8" rx="4" fill="#E9E9E9"/>
<rect x="65" y="135" width="64" height="48" rx="5" fill="#E9E9E9"/>
<rect x="272" y="135" width="64" height="48" rx="5" fill="#E9E9E9"/>
<rect x="290" y="276" width="32" height="32" rx="5" fill="#E9E9E9"/>
<rect x="56" y="280" width="32" height="32" rx="5" fill="#E9E9E9"/>
<rect x="290" y="316" width="32" height="32" rx="5" fill="#E9E9E9"/>
<rect x="335" y="276" width="32" height="32" rx="5" fill="#E9E9E9"/>
<rect x="335" y="316" width="32" height="32" rx="5" fill="#E9E9E9"/>
<rect x="380" y="276" width="32" height="32" rx="5" fill="#E9E9E9"/>
<rect x="380" y="316" width="32" height="32" rx="5" fill="#E9E9E9"/>
<circle cx="22" cy="16" r="6" fill="#D2D2D2"/>
<circle cx="42" cy="16" r="6" fill="#D2D2D2"/>
<circle cx="62" cy="16" r="6" fill="#D2D2D2"/>
<rect x="85.5" y="40.5" width="310" height="23" rx="11.5" stroke="#E9E9E9"/>
<circle cx="446" cy="42" r="2" fill="#E9E9E9"/>
<circle cx="446" cy="52" r="2" fill="#E9E9E9"/>
<circle cx="446" cy="62" r="2" fill="#E9E9E9"/>
<line x1="-0.0010395" y1="72.5" x2="480.999" y2="71.5" stroke="#E9E9E9"/>
<path d="M48 324H210V346C210 351.523 205.523 356 200 356H58C52.4772 356 48 351.523 48 346V324Z" fill="#E9E9E9"/>
<rect x="59" y="344" width="140" height="4" rx="2" fill="#FCFCFC"/>
<circle cx="129" cy="334" r="6" fill="#FCFCFC"/>
<path d="M133 334L127 337.464V330.536L133 334Z" fill="#E9E9E9"/>
<path d="M388.517 77.1334L379.725 90.0102L366.839 81.2305L358.046 94.1073L370.932 102.887L379.725 90.0102L392.61 98.79L383.818 111.667L396.703 120.447L405.496 107.57L392.61 98.79L401.403 85.9131L388.517 77.1334ZM401.473 85.8998L410.211 73.1034L423.016 81.8283L414.278 94.6248L401.473 85.8998Z" fill="#121138"/>
<g clip-path="url(#clip1_37_205)">
<path d="M138.326 229.653C129.069 230.508 119.607 229.405 111.513 226.845C99.5218 223.051 88.946 216.086 81.3044 207.665C81.1782 207.543 81.0519 207.421 80.902 207.374C80.3774 207.208 79.8884 207.711 80.2475 208.4C86.4578 219 96.5093 227.361 109.25 231.392C118.393 234.284 129.859 234.787 138.832 231.705C140.39 231.211 139.766 229.533 138.326 229.653Z" fill="url(#paint0_linear_37_205)"/>
<path d="M139.251 237.676C144.189 235.62 147.39 229.149 146.897 227.842C146.664 227.275 145.007 226.257 142.759 225.546C140.361 224.787 137.347 224.41 134.701 225.217C133.884 225.452 133.845 226.098 134.543 226.236C136.961 226.672 142.397 227.734 142.992 229.238C143.513 230.719 140.004 235.036 138.419 236.919C137.981 237.521 138.435 237.911 139.251 237.676Z" fill="url(#paint1_linear_37_205)"/>
</g>
<path d="M293.5 212C275.551 212 261 226.551 261 244.5C261 262.45 275.551 277 293.5 277C311.451 277 326 262.45 326 244.5C326 226.552 311.451 212.002 293.499 212.002L293.5 212ZM308.404 258.875C307.822 259.829 306.572 260.132 305.618 259.546C297.987 254.885 288.381 253.829 277.068 256.414C275.978 256.662 274.891 255.979 274.643 254.889C274.393 253.798 275.074 252.712 276.167 252.463C288.547 249.634 299.166 250.853 307.733 256.088C308.687 256.674 308.99 257.92 308.404 258.875ZM312.382 250.024C311.648 251.217 310.088 251.594 308.897 250.86C300.161 245.489 286.844 243.934 276.512 247.071C275.171 247.476 273.756 246.721 273.349 245.383C272.946 244.043 273.701 242.63 275.039 242.222C286.842 238.641 301.515 240.376 311.548 246.541C312.739 247.274 313.115 248.834 312.382 250.024ZM312.723 240.809C302.249 234.587 284.967 234.015 274.967 237.051C273.361 237.538 271.662 236.631 271.176 235.025C270.689 233.418 271.595 231.721 273.202 231.233C284.682 227.748 303.766 228.421 315.826 235.581C317.273 236.438 317.747 238.303 316.889 239.746C316.035 241.19 314.165 241.667 312.725 240.809H312.723Z" fill="#121138"/>
<g clip-path="url(#clip2_37_205)">
<path d="M221.692 134.923C220.105 132.336 217.259 130.78 214.218 130.855C210.002 130.508 173.091 140.551 163.094 145.885C160.496 147.472 158.929 150.312 158.999 153.344C159.48 161.321 164.087 177.522 168.21 184.613C169.796 187.2 172.642 188.756 175.683 188.681C183.69 188.202 219.431 177.989 226.82 173.692C229.418 172.105 230.984 169.265 230.915 166.233C230.351 157.555 226.037 142.357 221.692 134.923Z" fill="#121138"/>
<path d="M205.744 156.604L185.778 151.844L191.507 171.39L205.744 156.604Z" fill="#E9E9E9"/>
</g>
<path d="M-24.928 167.612C-4.26398 172.004 18.704 172.22 43.544 169.556C235.638 148.604 539.979 -49.0301 755.329 110.229C773.113 123.405 790.321 138.957 806.737 157.316C810.193 161.132 813.577 165.092 816.889 169.124" stroke="#121138"/>
<path d="M816.961 173.876C813.649 169.844 810.265 165.956 806.809 162.14C790.249 143.708 772.897 128.085 754.969 115.053C540.483 -41.039 237.798 166.316 45.632 192.019C20 195.475 -3.68798 195.763 -24.928 191.371" stroke="#121138"/>
<path d="M816.961 178.627C813.649 174.596 810.265 170.708 806.881 166.964C790.177 148.388 772.681 132.765 754.609 119.877C540.915 -32.9752 239.886 184.027 47.647 214.483C21.224 218.73 -3.184 219.45 -25 215.131" stroke="#121138"/>
<path d="M816.961 183.379C813.649 179.419 810.337 175.532 806.953 171.788C790.105 153.068 772.465 137.517 754.249 124.629C541.419 -25.0552 241.974 201.667 49.735 236.874C22.52 241.914 -2.60798 243.066 -24.928 238.746" stroke="#121138"/>
<path d="M816.961 188.203C604.923 -68.11 264.078 215.275 51.823 259.337C23.816 265.169 -1.95998 266.825 -24.928 262.505" stroke="#121138"/>
<path d="M816.961 51.911C724.586 -52.342 527.883 175.172 272.286 207.571C180.126 219.234 80.407 205.555 -24.928 141.836" stroke="#121138"/>
<path d="M816.961 57.8871C724.586 -46.3669 527.883 190.075 272.286 227.154C180.126 240.546 80.407 227.946 -24.928 164.228" stroke="#121138"/>
<path d="M816.961 63.935C724.586 -40.319 527.883 205.051 272.286 246.81C180.126 261.857 80.407 250.482 -24.928 186.763" stroke="#121138"/>
<path d="M816.961 69.91C724.586 -34.343 527.883 219.882 272.286 266.321C180.126 283.097 80.407 272.873 -24.928 209.155" stroke="#121138"/>
<path d="M-24.928 231.618C80.407 295.336 180.198 304.408 272.286 285.977C527.883 234.786 724.586 -28.2948 816.961 75.9582" stroke="#121138"/>
<path d="M375.029 194.539L376.829 194.179C377.621 196.699 378.557 198.931 379.709 200.731C380.645 202.387 381.725 203.827 382.949 205.123L385.037 207.067L388.061 209.587L393.533 214.051C397.853 217.938 400.372 222.258 401.308 227.082C401.74 229.53 401.74 232.41 401.308 235.65C400.804 238.89 399.796 242.49 398.285 246.45L397.205 246.666L398.285 242.058L399.221 237.234C399.437 235.938 399.58 234.57 399.653 233.13L399.509 230.25L399.365 228.954C399.221 228.306 399.149 227.586 399.005 226.866C398.789 226.362 398.572 225.786 398.357 225.282C398.141 224.778 397.709 223.986 397.061 222.906C395.981 220.962 394.397 219.306 392.453 217.794C390.509 216.138 388.565 215.059 386.621 214.411C385.613 214.051 384.533 213.763 383.381 213.619C382.229 213.475 381.221 213.475 380.429 213.619L387.917 254.585C388.349 256.817 387.989 258.977 386.837 261.209C385.973 263.081 384.461 264.737 382.301 266.249C380.141 267.761 377.981 268.697 375.893 269.129C373.877 269.489 372.005 269.273 370.421 268.481C368.837 267.689 367.829 266.321 367.469 264.233C367.037 262.001 367.397 259.913 368.405 257.897C369.413 255.953 370.997 254.153 373.013 252.642C375.101 251.13 377.045 250.194 378.917 249.906C381.653 249.402 383.813 249.618 385.325 250.482L378.557 213.475L375.101 194.611L375.029 194.539Z" fill="#121138"/>
<path d="M201.006 264.593L200.934 186.979H203.598C203.598 188.707 203.814 190.291 204.174 191.803C204.606 193.315 205.254 194.683 206.046 195.907C207.342 197.851 209.574 200.227 212.742 202.963C215.838 205.699 218.358 208.291 220.302 210.739L223.758 215.634C224.766 217.146 225.63 218.658 226.278 220.242C227.646 223.41 228.294 226.938 228.294 230.682C228.294 232.266 228.222 233.778 228.006 235.218C227.79 236.73 227.43 238.458 226.926 240.258C228.654 242.562 229.518 246.234 229.518 251.346L229.23 256.241C229.23 257.033 229.158 257.681 229.014 258.329C228.654 259.409 228.438 260.273 228.294 260.849C227.502 263.945 226.278 266.681 224.55 269.057H222.966C226.062 263.009 227.574 257.609 227.574 253.001C227.574 244.434 222.462 237.522 212.382 232.194L211.23 231.618L209.358 230.25L206.046 228.09L203.814 227.01L203.886 271.217C203.886 274.097 202.878 276.833 200.862 279.425C199.998 280.649 198.99 281.729 197.694 282.665C197.118 283.097 196.47 283.601 195.75 283.961C195.678 284.033 194.886 284.465 193.374 285.329C190.206 286.697 187.254 287.417 184.446 287.417C181.71 287.417 179.334 286.769 177.39 285.473C176.454 284.969 175.734 284.177 175.23 283.097C174.582 282.089 174.294 280.865 174.294 279.497C174.294 276.545 175.302 273.809 177.246 271.289C179.262 268.769 181.782 266.609 184.95 264.953C188.118 263.225 191.142 262.361 194.022 262.361C197.046 262.361 199.422 263.153 201.222 264.665L201.006 264.593ZM204.102 205.627C204.102 210.019 205.254 213.835 207.63 217.074C209.934 220.386 213.246 224.13 217.494 228.162C221.742 232.194 224.406 235.29 225.558 237.522L225.918 233.346C225.918 231.474 225.774 229.89 225.486 228.522C225.198 227.154 224.694 225.642 223.83 223.986C222.606 221.034 220.95 218.586 218.718 216.498C216.846 214.411 214.614 212.467 211.95 210.523L207.342 207.427L204.102 205.627Z" fill="#121138"/>
<path d="M265.59 128.301C265.302 125.709 265.95 123.405 267.39 121.173C268.83 119.013 270.774 117.213 273.366 115.557L276.966 113.901C277.758 113.685 278.406 113.469 278.765 113.397C279.197 113.325 279.773 113.181 280.638 113.109C285.893 112.605 288.773 114.693 289.205 119.373C289.421 121.317 288.773 123.477 287.333 125.853C286.037 128.157 284.093 130.173 281.573 131.757C278.981 133.341 276.534 134.277 274.23 134.565C271.926 134.781 269.838 134.421 267.966 133.485L272.214 174.596C275.454 173.732 278.261 172.148 280.709 169.7C283.157 167.396 284.957 164.66 286.181 161.564C287.405 158.468 287.837 155.516 287.549 152.636C287.189 149.324 286.469 146.444 285.389 144.068C284.381 141.548 282.653 138.309 280.277 134.349L281.501 133.701C282.941 135.645 284.309 137.805 285.605 140.253L287.261 143.708L288.701 147.452C289.061 148.46 289.421 149.54 289.709 150.836C289.997 152.06 290.285 153.356 290.429 154.724C290.789 158.396 290.285 161.708 288.917 164.66C287.549 167.684 285.461 171.356 282.581 175.532C279.63 179.707 277.47 183.307 276.102 186.403C274.662 189.499 274.158 192.811 274.518 196.339L272.646 196.555L265.662 128.157L265.59 128.301Z" fill="#121138"/>
<path d="M445.056 79.623C445.344 77.679 446.208 76.023 447.648 74.655C449.16 73.287 450.96 72.279 453.12 71.631C455.208 71.055 457.152 70.839 458.952 71.127C462.696 71.631 464.568 73.575 464.496 77.031C464.28 78.615 463.488 80.127 462.12 81.639C460.68 83.079 458.952 84.231 456.792 85.023C454.632 85.815 452.616 86.103 450.672 85.815C448.944 85.599 447.432 84.951 445.992 83.943L442.608 109.07C449.376 106.19 453.912 103.742 456.216 101.726C458.016 100.142 459.096 97.767 459.528 94.671C459.96 91.647 459.6 88.551 458.592 85.455L459.384 84.879C460.824 88.695 461.328 92.295 460.896 95.607C460.608 97.911 459.816 99.998 458.592 102.014C458.88 103.742 458.88 105.47 458.592 107.342C457.872 112.454 455.208 117.206 450.528 121.598L448.8 123.038L446.136 124.838C444.048 126.206 442.536 127.358 441.6 128.294C440.736 129.23 440.088 130.526 439.584 132.326L438 132.11L445.056 79.623ZM440.736 122.462C444.192 121.454 447.144 120.014 449.592 118.142C452.04 116.198 453.912 114.182 455.28 111.95C455.424 111.59 455.712 111.158 456 110.51C456.288 109.934 456.648 109.142 457.008 108.206C457.368 107.342 457.584 106.262 457.728 105.11L457.944 103.238C457.728 103.598 457.512 103.958 457.224 104.318C456.936 104.678 456.576 105.038 456.216 105.326C455.784 105.83 455.424 106.19 455.136 106.406C454.92 106.622 454.488 106.982 453.84 107.342L448.728 111.086C447.144 112.31 445.632 113.75 444.192 115.55C442.896 117.278 441.816 119.582 440.952 122.318L440.736 122.462Z" fill="#121138"/>
<path d="M23.744 164.156L19.208 152.204C17.984 148.1 17.12 144.212 16.544 140.54C15.752 135.213 15.536 130.245 15.968 125.637C16.184 121.101 16.976 116.925 18.416 113.037C19.784 109.293 21.44 106.413 23.384 104.469C25.256 102.598 26.624 101.59 27.632 101.446C28.064 101.374 28.64 101.518 29.288 101.806L31.52 103.677C38.432 111.093 42.752 120.597 44.48 132.189C44.912 135.213 45.2 137.805 45.2 139.893C45.272 142.052 45.344 143.636 45.272 144.5C45.272 145.364 45.056 146.732 44.696 148.604C44.048 154.076 42.752 159.332 40.808 164.444C38.792 169.556 36.056 174.308 32.672 178.555L39.44 197.203L43.76 196.051C47.575 195.475 51.103 195.763 54.199 196.915C57.511 197.851 60.391 199.651 62.839 202.171C65.287 204.547 67.375 207.283 69.031 210.451C70.687 213.619 71.767 217.074 72.343 220.746C73.207 226.362 72.487 231.762 70.255 236.874C67.951 242.13 63.919 246.378 58.303 249.618L61.903 259.409L65.719 269.777L67.447 277.409C68.023 281.297 67.663 284.753 66.295 287.921C64.855 291.088 62.695 293.824 59.743 296.128C56.791 298.216 53.479 299.512 49.735 300.088C44.552 300.88 39.728 300.016 35.12 297.64C30.44 295.264 27.776 291.52 26.984 286.481C26.84 285.401 26.84 284.321 26.984 283.313L27.704 279.713C28.28 277.625 29.36 275.825 30.944 274.097C32.528 272.513 34.4 271.577 36.488 271.217C38.432 270.929 40.304 271.145 42.176 271.793C43.976 272.513 45.488 273.809 46.783 275.537C48.007 277.265 48.727 279.137 49.015 281.225C49.447 284.105 48.871 286.697 47.287 289.001C45.632 291.304 43.328 292.672 40.376 293.104L39.224 293.248C41.528 295.912 44.84 296.92 49.231 296.272C51.247 295.984 53.335 295.192 55.495 293.968C57.727 292.672 59.455 291.16 60.823 289.361L62.479 286.625L63.271 284.033C63.631 281.873 63.559 279.065 63.055 275.609C62.695 273.161 62.191 271.073 61.543 269.345C61.183 268.049 60.967 267.113 60.751 266.465C60.535 265.817 60.247 265.241 59.887 264.593L57.943 259.913L54.703 251.418L50.527 252.93L45.919 253.937C41.024 254.657 35.912 254.369 30.584 253.001C25.616 251.346 21.08 248.898 16.904 245.73C13.016 242.49 9.63197 238.458 6.82397 233.634C4.01597 228.882 2.21597 223.914 1.42397 218.73C1.06397 216.426 0.919971 213.979 1.06397 211.387C1.06397 210.451 1.20797 209.227 1.42397 207.931C1.56797 206.635 1.71197 205.411 1.99997 204.259L4.08797 197.059C4.51997 195.907 4.95197 194.827 5.38397 193.747C5.74397 192.739 6.31997 191.587 6.89597 190.291L10.136 184.027L13.736 178.195C16.832 173.66 20.144 168.908 23.672 164.084L23.744 164.156ZM40.52 210.955C37.784 212.107 35.336 214.339 33.176 217.65C31.16 220.89 30.44 224.202 30.944 227.658C31.232 229.674 32.312 231.978 34.112 234.57C35.912 236.802 38.288 238.386 41.312 239.394C42.104 239.322 42.536 239.682 42.752 240.474C42.608 240.762 42.464 240.906 42.248 241.05C42.032 241.266 41.888 241.338 41.816 241.338C37.208 240.834 33.176 239.034 29.864 235.794C26.48 232.626 24.464 228.738 23.816 224.274C23.6 222.978 23.528 221.754 23.528 220.746C23.528 219.666 23.672 218.226 24.032 216.282C24.32 214.339 25.04 212.107 26.192 209.659C28.352 205.051 31.592 201.379 35.912 198.787L30.08 182.011C26.552 186.043 23.528 189.787 21.152 193.315C18.704 196.915 16.616 200.515 14.888 204.115C13.16 207.715 11.864 211.531 11.072 215.634C10.784 217.65 10.568 219.594 10.496 221.394C10.424 223.194 10.568 225.21 10.928 227.298C11.072 228.306 11.216 229.314 11.36 230.322C11.72 231.258 12.008 231.906 12.152 232.338C12.8 233.922 13.664 235.578 14.672 237.306C16.544 240.402 19.136 243.21 22.376 245.586C25.472 247.962 28.856 249.618 32.528 250.554C36.128 251.562 40.16 251.706 44.48 251.058C47.143 250.698 50.239 249.69 53.839 248.106L40.664 211.099L40.52 210.955ZM26.408 160.772C27.92 159.692 29.504 157.748 31.16 154.94C32.168 153.428 32.96 152.06 33.536 150.836L35.696 146.012C37.064 142.844 38.072 139.461 38.72 135.789C39.368 132.117 39.512 128.949 39.152 126.285L38.288 122.901C37.784 121.101 36.992 119.877 35.984 119.085C34.976 118.293 33.752 118.077 32.168 118.293C29.36 118.725 27.056 120.885 25.184 124.845L23.528 129.885L22.304 136.365L22.016 142.988L22.448 149.18C22.592 150.26 22.736 151.196 22.88 151.988C23.024 152.78 23.312 154.004 23.888 155.588C24.464 157.244 25.328 158.972 26.48 160.772H26.408ZM43.976 209.947L57.007 246.234C63.919 242.13 66.583 235.002 65.071 224.922C64.135 221.61 62.695 218.73 60.751 216.426C58.735 214.123 56.287 212.251 53.407 210.955C50.527 209.803 47.431 209.443 43.976 209.947Z" fill="#121138"/>
<path d="M97.615 270.785L95.239 278.921L99.127 278.777L96.031 289.217L98.263 289.865L101.575 278.705L110.791 278.417L107.263 290.225L109.495 290.872L113.239 278.273L117.415 278.129L119.791 269.993L115.543 270.137L118.855 258.905L123.031 258.761L125.407 250.626L121.231 250.77L124.183 240.762L121.951 240.114L118.783 250.842L109.567 251.13L112.951 239.754L110.719 239.106L107.119 251.202L103.231 251.346L100.855 259.481L104.743 259.337L101.431 270.641L97.543 270.785H97.615ZM107.263 259.337L116.479 259.049L113.167 270.353L103.951 270.641L107.263 259.337Z" fill="#121138"/>
<path d="M435.508 204.907C434.716 201.019 432.988 197.707 431.044 194.899C430.18 193.819 429.388 192.667 428.524 191.587C428.092 191.371 428.02 191.587 427.516 191.803C428.164 192.739 428.812 193.675 429.46 194.611C430.684 196.483 431.908 198.571 432.7 200.803C435.724 209.587 430.756 217.218 424.132 219.522H424.06C422.476 210.307 420.892 201.091 419.236 191.875C424.564 194.467 429.964 189.499 431.98 186.043C433.204 183.955 433.564 180.859 431.836 178.915C430.756 177.692 428.884 177.62 427.228 177.332C426.292 177.548 425.356 177.836 424.42 178.052C421.324 179.347 418.444 181.939 417.364 185.179C416.428 188.059 418.372 195.763 419.092 199.147C421.108 210.955 423.124 222.762 425.212 234.498C425.644 234.426 426.148 234.354 426.652 234.354C426.652 232.914 426.58 231.474 426.58 230.034C426.724 228.234 427.012 226.65 427.588 225.282C429.892 219.738 437.38 213.835 435.58 204.763L435.508 204.907Z" fill="#121138"/>
</g>
<defs>
<linearGradient id="paint0_linear_37_205" x1="91.0528" y1="229.209" x2="146.969" y2="200.08" gradientUnits="userSpaceOnUse">
<stop stop-color="#121138"/>
<stop offset="0.2911" stop-color="#121138"/>
<stop offset="0.890625" stop-color="#518DA6"/>
<stop offset="0.9999" stop-color="#FAFDFF"/>
<stop offset="1" stop-color="#1D224D"/>
</linearGradient>
<linearGradient id="paint1_linear_37_205" x1="101.713" y1="249.673" x2="157.629" y2="220.544" gradientUnits="userSpaceOnUse">
<stop stop-color="#121138"/>
<stop offset="0.0001"/>
<stop offset="0.2911" stop-color="#121138"/>
<stop offset="0.8873" stop-color="#121138" stop-opacity="0.72"/>
<stop offset="1" stop-color="#888FCB"/>
</linearGradient>
<clipPath id="clip0_37_205">
<path d="M0 10C0 4.47716 4.47715 0 10 0H470C475.523 0 480 4.47715 480 10V380H0V10Z" fill="white"/>
</clipPath>
<clipPath id="clip1_37_205">
<rect width="69.9721" height="40.7712" fill="white" transform="translate(88.2983 182) rotate(17.5563)"/>
</clipPath>
<clipPath id="clip2_37_205">
<rect width="69.4489" height="47.8725" fill="white" transform="translate(155 146.534) rotate(-16.3365)"/>
</clipPath>
</defs>
</svg>
