<svg width="380" height="380" viewBox="0 0 380 380" fill="none" xmlns="http://www.w3.org/2000/svg">
<g opacity="0.9">
<rect width="380" height="380" rx="190" fill="#E6F5FF"/>
<g clip-path="url(#clip0_45_111)">
<path fill-rule="evenodd" clip-rule="evenodd" d="M164.906 171.466C171.003 164.529 177.305 157.953 183.813 151.74C180.708 142.162 178.897 132.21 178.428 122.15C177.863 104.297 180.592 85.3351 190.721 70.3676C193.549 65.8798 198.466 58.3837 203.801 59.0001C208.301 59.5919 210.759 65.9784 212.53 69.6525C224.626 94.3107 227.109 120.3 213.144 148.386C208.044 158.156 201.55 167.127 193.868 175.017L199.72 204.903C200.427 204.752 201.141 204.636 201.859 204.557C209.064 203.486 216.423 204.702 222.905 208.034C236.673 215.432 245.229 234.098 243.853 249.534C242.623 263.096 236.477 272.466 226.273 280.677C223.05 283.326 219.556 285.624 215.849 287.532L222.905 323.583C223.208 326.647 223.306 329.728 223.2 332.805C222.339 351.816 207.588 362.789 189.32 361.951C175.257 361.063 160.628 349.868 160.554 335.715C160.406 308.27 197.433 309.577 194.729 334.679C193.942 342.076 188.558 348.611 177.002 349.03C186.32 364.515 215.136 353.444 217.103 333.15C217.465 327.961 216.891 322.748 215.406 317.763L210.071 289.924C207.609 290.698 205.083 291.251 202.523 291.576C194.527 292.464 186.435 291.682 178.755 289.28C171.075 286.878 163.974 282.908 157.899 277.62C149.732 270.171 143.628 260.727 140.181 250.209C136.734 239.691 136.062 228.458 138.229 217.602C141.917 198.787 152.711 185.398 164.906 171.466ZM189.025 147.967C183.936 129.399 184.698 105.851 197.802 90.464C210.907 75.0773 225.364 95.9874 206.285 126.613C201.379 134.366 195.605 141.531 189.074 147.967H189.025ZM189.025 180.023C187.378 181.675 185.681 183.327 183.96 184.954C174.126 194.448 164.291 203.497 156.915 217.01C153.274 223.403 151.059 230.512 150.422 237.847C149.786 245.182 150.743 252.568 153.227 259.496C159.128 277.965 187.648 289.604 208.915 284.006L197.778 225.764C193.283 227.012 189.244 229.539 186.151 233.04C183.057 236.54 181.041 240.865 180.346 245.49C179.886 249.08 180.339 252.729 181.663 256.096C182.987 259.463 185.139 262.44 187.919 264.748C189.325 265.965 190.812 267.086 192.369 268.102C195.417 270.124 193.918 271.579 191.066 270.715C181.551 267.51 175.847 262.233 172.798 255.501C163.775 235.578 174.839 213.385 194.09 206.382L189.025 179.998V180.023ZM214.767 281.984L203.605 224.802C207.468 224.634 211.308 225.484 214.742 227.268C218.819 229.181 222.405 232.005 225.226 235.522C228.047 239.04 230.029 243.158 231.018 247.561C233.969 261.296 226.839 276.461 215.062 281.935L214.767 282.058V281.984Z" fill="#201F60"/>
</g>
<g clip-path="url(#clip1_45_111)">
<path fill-rule="evenodd" clip-rule="evenodd" d="M270.955 244C263.85 235.357 260.381 226.848 260.035 218.472C259.308 200.919 269.686 187.822 285.103 178.387C301.318 168.464 317.995 166.001 334.21 158.603C342.309 154.913 351.969 148.866 368.042 136C373.293 149.951 356.581 172.368 329.438 184.22C337.847 184.549 346.904 181.962 356.803 175.56C356.129 193.29 342.202 204.2 311.298 208.415C317.8 210.593 325.57 210.709 335.487 207.899C325.934 239.865 286.523 216.969 270.955 244Z" fill="#201F60"/>
</g>
<g clip-path="url(#clip2_45_111)">
<path fill-rule="evenodd" clip-rule="evenodd" d="M110.045 244C117.15 235.357 120.619 226.848 120.965 218.472C121.692 200.919 111.314 187.822 95.8967 178.387C79.6815 168.464 63.0051 166.001 46.7899 158.603C38.6912 154.913 29.0313 148.866 12.958 136C7.70673 149.951 24.4186 172.368 51.5622 184.22C43.153 184.549 34.0963 181.962 24.1969 175.56C24.871 193.29 38.7976 204.2 69.7023 208.415C63.2002 210.593 55.4297 210.709 45.5126 207.899C55.066 239.865 94.4774 216.969 110.045 244Z" fill="#201F60"/>
</g>
<path d="M288.062 88.5345C288.384 87.6639 289.616 87.6639 289.938 88.5345L291.541 92.8679C291.643 93.1416 291.858 93.3574 292.132 93.4587L296.465 95.0621C297.336 95.3843 297.336 96.6157 296.465 96.9379L292.132 98.5413C291.858 98.6426 291.643 98.8584 291.541 99.1321L289.938 103.465C289.616 104.336 288.384 104.336 288.062 103.465L286.459 99.1321C286.357 98.8584 286.142 98.6426 285.868 98.5413L281.535 96.9379C280.664 96.6157 280.664 95.3843 281.535 95.0621L285.868 93.4587C286.142 93.3574 286.357 93.1416 286.459 92.8679L288.062 88.5345Z" fill="#201F60"/>
<path d="M115.062 54.5345C115.384 53.6639 116.616 53.6639 116.938 54.5345L118.541 58.8679C118.643 59.1416 118.858 59.3574 119.132 59.4587L123.465 61.0621C124.336 61.3843 124.336 62.6157 123.465 62.9379L119.132 64.5413C118.858 64.6426 118.643 64.8584 118.541 65.1321L116.938 69.4655C116.616 70.3361 115.384 70.3361 115.062 69.4655L113.459 65.1321C113.357 64.8584 113.142 64.6426 112.868 64.5413L108.535 62.9379C107.664 62.6157 107.664 61.3843 108.535 61.0621L112.868 59.4587C113.142 59.3574 113.357 59.1416 113.459 58.8679L115.062 54.5345Z" fill="#201F60"/>
<path d="M91.0621 282.535C91.3843 281.664 92.6157 281.664 92.9379 282.535L94.5413 286.868C94.6426 287.142 94.8584 287.357 95.1321 287.459L99.4655 289.062C100.336 289.384 100.336 290.616 99.4655 290.938L95.1321 292.541C94.8584 292.643 94.6426 292.858 94.5413 293.132L92.9379 297.465C92.6157 298.336 91.3843 298.336 91.0621 297.465L89.4587 293.132C89.3574 292.858 89.1416 292.643 88.8679 292.541L84.5345 290.938C83.6639 290.616 83.6639 289.384 84.5345 289.062L88.8679 287.459C89.1416 287.357 89.3574 287.142 89.4587 286.868L91.0621 282.535Z" fill="#201F60"/>
</g>
<defs>
<clipPath id="clip0_45_111">
<rect width="107" height="303" fill="white" transform="translate(137 59)"/>
</clipPath>
<clipPath id="clip1_45_111">
<rect width="109" height="108" fill="white" transform="translate(261 136)"/>
</clipPath>
<clipPath id="clip2_45_111">
<rect width="109" height="108" fill="white" transform="matrix(-1 0 0 1 121 136)"/>
</clipPath>
</defs>
</svg>
