<svg width="236" height="60" viewBox="0 0 236 60" fill="none" xmlns="http://www.w3.org/2000/svg">
<g clip-path="url(#clip0_51_182)">
<path d="M21.1697 46.5173C21.0406 46.5153 20.867 46.4154 20.7931 46.3C20.743 46.2213 20.7245 46.1435 20.6584 45.7263C20.5662 45.1447 20.4889 44.414 20.473 43.9689C20.4381 43.0034 20.4612 39.6827 20.516 37.8646C20.5573 36.4748 20.5978 35.2953 20.6243 34.6914C20.6402 34.3358 20.6699 33.6584 20.6903 33.1867C20.7107 32.7151 20.7397 32.1427 20.755 31.9153C20.8818 30.0354 20.9415 29.3231 21.0913 27.9062C21.4421 24.5945 21.8798 21.935 22.4881 19.4251C23.0711 17.018 23.885 14.9273 24.5589 14.106C24.6934 13.9423 24.9492 13.7085 25.0774 13.6314C25.3509 13.4681 25.6923 13.4366 25.9534 13.5507C26.2659 13.6869 26.4156 13.9077 26.6303 14.549C26.9607 15.5343 27.133 16.7044 27.1862 18.33C27.1922 18.5035 27.2021 18.7977 27.2084 18.9843C27.2314 19.6481 27.2622 21.7131 27.2803 23.7389C27.2915 25.0209 27.3133 26.44 27.3447 27.945C27.3506 28.2464 27.3731 28.9225 27.3939 29.4481C27.4151 29.973 27.4409 30.6261 27.4513 30.8993C27.4752 31.5084 27.6202 34.0255 27.6765 34.7991C27.7495 35.8057 27.8562 36.8265 27.9556 37.4693C27.9972 37.739 28.129 38.4215 28.141 38.4296C28.1439 38.4315 28.2098 38.2445 28.2869 38.0131C28.528 37.2945 28.8048 36.2102 29.5291 33.1445C30.087 30.7817 30.648 28.8034 31.1367 27.4722C31.623 26.1494 32.2044 25.0291 32.7187 24.4245C33.042 24.0448 33.3359 23.8266 33.6797 23.7104C34.1874 23.5393 34.6494 23.6139 35.0512 23.9303C35.4261 24.2257 35.7786 24.8168 36.3085 26.0369C36.8192 27.213 37.0575 27.6398 37.3949 27.9801C37.7867 28.3757 38.1232 28.4489 38.7926 28.2833C39.4263 28.1273 39.8699 27.8787 40.5729 27.2862C40.8472 27.0543 41.906 26.0116 42.776 25.1154C43.8166 24.0441 44.8533 22.996 45.0011 22.8667C45.7507 22.2094 45.9803 22.0254 46.1007 21.9857C46.4243 21.8785 46.7528 22.1437 46.7094 22.4778C46.6878 22.6465 46.636 22.7148 46.3309 22.9726C45.719 23.4912 45.4866 23.7051 45.0503 24.1498C44.799 24.4058 44.3389 24.8748 44.027 25.1916C43.7151 25.5085 43.4525 25.7788 43.4436 25.7921C43.4211 25.8252 41.7995 27.4487 41.5805 27.6575C41.0642 28.1505 40.4125 28.6366 39.9631 28.8646C39.5291 29.0846 38.9528 29.2549 38.4706 29.3052C37.664 29.3893 36.9833 29.0539 36.4185 28.2954C36.146 27.9292 35.8838 27.4399 35.5593 26.69C34.9506 25.285 34.6102 24.7037 34.33 24.5932C34.2279 24.5527 34.0158 24.5745 33.8983 24.6369C33.3627 24.9233 32.6467 26.1257 32.0498 27.7426C31.571 29.0392 31.0656 30.8015 30.533 33.029C30.4122 33.5343 30.1714 34.5411 29.9986 35.2665C29.3869 37.8267 29.0206 39.0029 28.7105 39.4066C28.502 39.6778 28.2489 39.8019 27.972 39.7684C27.7008 39.7364 27.5331 39.5605 27.369 39.1361C27.1553 38.5841 26.9574 37.4376 26.8175 35.9388C26.6556 34.2118 26.4348 29.955 26.3928 27.7733C26.3844 27.3246 26.3755 26.8865 26.3737 26.7997C26.354 26.0178 26.3376 24.7237 26.3242 22.8954C26.3094 20.8436 26.2532 18.5052 26.1929 17.4619C26.1323 16.4217 25.9361 15.3857 25.6509 14.6082L25.5882 14.4364L25.5327 14.4712C25.5017 14.4909 25.4207 14.5689 25.3521 14.6458C24.9821 15.059 24.5656 15.9296 24.1243 17.2108C23.8844 17.907 23.8691 17.9561 23.6959 18.5681C22.9101 21.3429 22.2597 25.28 21.8852 29.5276C21.8324 30.1288 21.6552 32.5569 21.6627 32.5793C21.6643 32.584 21.6498 32.9489 21.6306 33.3913C21.5491 35.282 21.5353 35.6438 21.492 37.0395C21.4137 39.5746 21.3807 42.9519 21.4236 43.9743C21.4433 44.436 21.5037 44.9935 21.6001 45.6102C21.6847 46.1481 21.6773 46.2159 21.5221 46.3715C21.4145 46.4788 21.3169 46.5195 21.1697 46.5173Z" fill="url(#paint0_linear_51_182)"/>
<path fill-rule="evenodd" clip-rule="evenodd" d="M30 5.65173C43.4381 5.65173 54.3482 16.5618 54.3482 29.9999C54.3482 43.438 43.4381 54.348 30 54.348C16.5619 54.348 5.65186 43.438 5.65186 29.9999C5.65186 16.5618 16.5619 5.65173 30 5.65173ZM30 6.40173C16.9759 6.40173 6.40185 16.9757 6.40185 29.9999C6.40185 43.024 16.9759 53.598 30 53.598C43.0242 53.598 53.5982 43.024 53.5982 29.9999C53.5982 16.9757 43.0242 6.40173 30 6.40173Z" fill="url(#paint1_linear_51_182)"/>
<g clip-path="url(#clip1_51_182)">
<path d="M21.1697 46.5174C21.0406 46.5155 20.867 46.4155 20.7931 46.3002C20.743 46.2214 20.7245 46.1437 20.6584 45.7264C20.5662 45.1448 20.4889 44.4141 20.473 43.969C20.4381 43.0035 20.4612 39.6828 20.516 37.8647C20.5573 36.4749 20.5978 35.2954 20.6243 34.6915C20.6402 34.3359 20.6699 33.6585 20.6903 33.1869C20.7107 32.7152 20.7397 32.1428 20.755 31.9154C20.8818 30.0355 20.9415 29.3232 21.0913 27.9063C21.4421 24.5946 21.8798 21.9351 22.4881 19.4252C23.0711 17.0181 23.885 14.9274 24.5589 14.1061C24.6934 13.9424 24.9492 13.7086 25.0774 13.6316C25.3509 13.4682 25.6923 13.4367 25.9534 13.5508C26.2659 13.687 26.4156 13.9078 26.6303 14.5491C26.9607 15.5344 27.1329 16.7045 27.1862 18.3302C27.1922 18.5036 27.2021 18.7978 27.2084 18.9844C27.2314 19.6482 27.2622 21.7132 27.2803 23.7391C27.2915 25.021 27.3133 26.4401 27.3447 27.9451C27.3506 28.2465 27.3731 28.9226 27.3939 29.4482C27.4151 29.9732 27.4409 30.6262 27.4513 30.8994C27.4752 31.5085 27.6202 34.0256 27.6765 34.7992C27.7495 35.8058 27.8562 36.8266 27.9556 37.4695C27.9972 37.7392 28.129 38.4216 28.141 38.4297C28.1439 38.4316 28.2098 38.2446 28.2869 38.0133C28.528 37.2946 28.8048 36.2104 29.5291 33.1446C30.087 30.7819 30.648 28.8036 31.1367 27.4724C31.623 26.1495 32.2044 25.0292 32.7187 24.4247C33.042 24.045 33.3359 23.8267 33.6797 23.7105C34.1874 23.5394 34.6494 23.614 35.0512 23.9305C35.4261 24.2258 35.7786 24.817 36.3085 26.037C36.8192 27.2131 37.0575 27.6399 37.3949 27.9802C37.7867 28.3759 38.1232 28.449 38.7925 28.2835C39.4263 28.1275 39.8699 27.8788 40.5729 27.2864C40.8472 27.0544 41.906 26.0117 42.776 25.1156C43.8166 24.0442 44.8533 22.9962 45.0011 22.8668C45.7507 22.2095 45.9803 22.0256 46.1007 21.9858C46.4243 21.8787 46.7528 22.1438 46.7094 22.4779C46.6878 22.6467 46.636 22.7149 46.3309 22.9728C45.719 23.4914 45.4866 23.7052 45.0502 24.15C44.799 24.406 44.3389 24.8749 44.027 25.1918C43.7151 25.5086 43.4525 25.7789 43.4436 25.7923C43.4211 25.8253 41.7995 27.4489 41.5805 27.6576C41.0642 28.1506 40.4124 28.6368 39.9631 28.8647C39.5291 29.0847 38.9528 29.255 38.4706 29.3053C37.664 29.3895 36.9833 29.0541 36.4185 28.2955C36.146 27.9294 35.8838 27.44 35.5593 26.6901C34.9506 25.2851 34.6102 24.7039 34.33 24.5933C34.2279 24.5528 34.0158 24.5746 33.8983 24.6371C33.3626 24.9235 32.6467 26.1258 32.0498 27.7427C31.571 29.0394 31.0656 30.8016 30.533 33.0292C30.4122 33.5345 30.1714 34.5413 29.9986 35.2666C29.3869 37.8268 29.0206 39.003 28.7105 39.4067C28.502 39.6779 28.2489 39.802 27.972 39.7685C27.7008 39.7366 27.5331 39.5606 27.369 39.1362C27.1553 38.5842 26.9574 37.4377 26.8175 35.9389C26.6556 34.2119 26.4348 29.9551 26.3928 27.7734C26.3844 27.3247 26.3755 26.8866 26.3737 26.7998C26.354 26.0179 26.3376 24.7238 26.3242 22.8956C26.3094 20.8437 26.2532 18.5053 26.1929 17.4621C26.1323 16.4218 25.9361 15.3859 25.6509 14.6083L25.5882 14.4366L25.5327 14.4714C25.5017 14.491 25.4207 14.5691 25.3521 14.6459C24.9821 15.0591 24.5656 15.9297 24.1243 17.2109C23.8844 17.9071 23.8691 17.9563 23.6959 18.5682C22.9101 21.3431 22.2597 25.2801 21.8852 29.5277C21.8323 30.129 21.6552 32.5571 21.6627 32.5794C21.6643 32.5841 21.6498 32.949 21.6306 33.3914C21.5491 35.2821 21.5353 35.6439 21.492 37.0396C21.4137 39.5747 21.3807 42.952 21.4236 43.9744C21.4433 44.4362 21.5037 44.9937 21.6001 45.6103C21.6847 46.1482 21.6773 46.2161 21.5221 46.3716C21.4145 46.4789 21.3169 46.5196 21.1697 46.5174Z" fill="url(#paint2_linear_51_182)" stroke="url(#paint3_linear_51_182)" stroke-width="1.6" stroke-miterlimit="2" stroke-linejoin="round"/>
<path fill-rule="evenodd" clip-rule="evenodd" d="M17.1 9.34983C28.4971 2.23011 43.5304 5.70278 50.6501 17.0999C57.7699 28.4969 54.2972 43.5303 42.9001 50.65C31.5031 57.7697 16.4697 54.297 9.35 42.8999C2.23028 31.5029 5.70296 16.4695 17.1 9.34983ZM17.4974 9.98591C6.45138 16.8863 3.08568 31.4566 9.98609 42.5026C16.8865 53.5486 31.4568 56.9143 42.5028 50.0139C53.5488 43.1135 56.9145 28.5432 50.0141 17.4972C43.1136 6.45121 28.5434 3.0855 17.4974 9.98591Z" fill="url(#paint4_linear_51_182)"/>
</g>
</g>
<path d="M73.6364 17.7273H74.2727L83.7727 39.9091H83.8636L93.3636 17.7273H94V41H93.2727V20H93.1818L84.1818 41H83.4545L74.4545 20H74.3636V41H73.6364V17.7273ZM111.989 35.2727V23.5455H112.716V41H111.989V38.2273H111.898C111.489 39.1364 110.814 39.8636 109.875 40.4091C108.943 40.9545 107.875 41.2273 106.67 41.2273C105.504 41.2273 104.473 40.9735 103.58 40.4659C102.686 39.9583 101.985 39.2576 101.477 38.3636C100.97 37.4697 100.716 36.4394 100.716 35.2727V23.5455H101.443V35.2727C101.443 36.8182 101.928 38.0758 102.898 39.0455C103.867 40.0152 105.125 40.5 106.67 40.5C107.701 40.5 108.614 40.2765 109.409 39.8295C110.212 39.3826 110.841 38.7652 111.295 37.9773C111.758 37.1894 111.989 36.2879 111.989 35.2727ZM129.358 27.2273L128.631 27.4091C128.396 26.6515 128.066 26.0227 127.642 25.5227C127.225 25.0152 126.714 24.6364 126.108 24.3864C125.502 24.1288 124.797 24 123.994 24C122.6 24 121.472 24.3561 120.608 25.0682C119.744 25.7727 119.312 26.7045 119.312 27.8636C119.312 28.7803 119.604 29.5492 120.188 30.1705C120.778 30.7917 121.669 31.25 122.858 31.5455L125.585 32.2273C126.866 32.5455 127.835 33.0833 128.494 33.8409C129.161 34.5985 129.494 35.5152 129.494 36.5909C129.494 37.5379 129.244 38.3712 128.744 39.0909C128.252 39.8106 127.57 40.3712 126.699 40.7727C125.828 41.1667 124.82 41.3636 123.676 41.3636C122.123 41.3636 120.854 40.9848 119.869 40.2273C118.884 39.4697 118.244 38.3939 117.949 37L118.676 36.8182C118.934 38.053 119.483 39 120.324 39.6591C121.172 40.3106 122.29 40.6364 123.676 40.6364C125.191 40.6364 126.419 40.2652 127.358 39.5227C128.297 38.7803 128.767 37.803 128.767 36.5909C128.767 35.6894 128.487 34.928 127.926 34.3068C127.366 33.6856 126.525 33.2348 125.403 32.9545L122.676 32.2727C121.335 31.9394 120.316 31.3939 119.619 30.6364C118.93 29.8788 118.585 28.9545 118.585 27.8636C118.585 26.947 118.812 26.1477 119.267 25.4659C119.729 24.7765 120.366 24.2386 121.176 23.8523C121.994 23.4659 122.934 23.2727 123.994 23.2727C125.343 23.2727 126.468 23.6061 127.369 24.2727C128.271 24.9318 128.934 25.9167 129.358 27.2273ZM134.776 41V23.5455H135.503V41H134.776ZM135.139 20.3636C134.942 20.3636 134.772 20.2917 134.628 20.1477C134.484 20.0038 134.412 19.8333 134.412 19.6364C134.412 19.4394 134.484 19.2689 134.628 19.125C134.772 18.9811 134.942 18.9091 135.139 18.9091C135.336 18.9091 135.507 18.9811 135.651 19.125C135.795 19.2689 135.866 19.4394 135.866 19.6364C135.866 19.8333 135.795 20.0038 135.651 20.1477C135.507 20.2917 135.336 20.3636 135.139 20.3636ZM148.051 41.3636C146.642 41.3636 145.384 40.9697 144.278 40.1818C143.18 39.3864 142.313 38.3068 141.676 36.9432C141.047 35.5795 140.733 34.0379 140.733 32.3182C140.733 30.6136 141.047 29.0795 141.676 27.7159C142.305 26.3447 143.169 25.2614 144.267 24.4659C145.373 23.6705 146.634 23.2727 148.051 23.2727C149.097 23.2727 150.055 23.5 150.926 23.9545C151.805 24.4015 152.54 25.0303 153.131 25.8409C153.722 26.6439 154.104 27.5758 154.278 28.6364H153.506C153.271 27.2652 152.646 26.1515 151.631 25.2955C150.623 24.4318 149.43 24 148.051 24C146.801 24 145.676 24.3636 144.676 25.0909C143.684 25.8106 142.9 26.7992 142.324 28.0568C141.748 29.3068 141.46 30.7273 141.46 32.3182C141.46 33.8636 141.737 35.2652 142.29 36.5227C142.85 37.7803 143.627 38.7803 144.619 39.5227C145.612 40.2652 146.756 40.6364 148.051 40.6364C148.983 40.6364 149.839 40.4432 150.619 40.0568C151.4 39.6629 152.047 39.1098 152.562 38.3977C153.085 37.6856 153.415 36.8561 153.551 35.9091H154.324C154.157 37.0076 153.778 37.9659 153.188 38.7841C152.597 39.6023 151.858 40.2386 150.972 40.6932C150.085 41.1402 149.112 41.3636 148.051 41.3636ZM169.011 41V17.7273H175.83C177.133 17.7273 178.284 18.0038 179.284 18.5568C180.292 19.1098 181.08 19.8826 181.648 20.875C182.223 21.8674 182.511 23.0303 182.511 24.3636C182.511 25.6818 182.223 26.8371 181.648 27.8295C181.08 28.8144 180.292 29.5833 179.284 30.1364C178.284 30.6818 177.133 30.9545 175.83 30.9545H169.375V30.2273H175.83C176.996 30.2273 178.027 29.9848 178.92 29.5C179.814 29.0152 180.515 28.3333 181.023 27.4545C181.53 26.5758 181.784 25.5455 181.784 24.3636C181.784 23.1742 181.53 22.1364 181.023 21.25C180.515 20.3636 179.814 19.678 178.92 19.1932C178.027 18.7008 176.996 18.4545 175.83 18.4545H169.739V41H169.011ZM177.875 30.4091L183.602 41H182.784L177.057 30.4091H177.875ZM192.517 41.3636C191.563 41.3636 190.68 41.1667 189.869 40.7727C189.066 40.3788 188.419 39.803 187.926 39.0455C187.441 38.2879 187.199 37.3636 187.199 36.2727C187.199 35.6818 187.294 35.1288 187.483 34.6136C187.672 34.0909 188.006 33.6174 188.483 33.1932C188.96 32.7689 189.627 32.4053 190.483 32.1023C191.347 31.7992 192.449 31.5682 193.79 31.4091C194.593 31.3182 195.35 31.2121 196.062 31.0909C196.775 30.9697 197.354 30.7879 197.801 30.5455C198.248 30.303 198.472 29.9545 198.472 29.5V28.4545C198.472 27.1136 198.021 26.0379 197.119 25.2273C196.218 24.4091 195.017 24 193.517 24C192.29 24 191.218 24.2727 190.301 24.8182C189.384 25.3561 188.744 26.1136 188.381 27.0909L187.699 26.8182C187.972 26.0909 188.392 25.4621 188.96 24.9318C189.528 24.4015 190.203 23.9924 190.983 23.7045C191.763 23.4167 192.608 23.2727 193.517 23.2727C194.403 23.2727 195.195 23.4053 195.892 23.6705C196.597 23.928 197.195 24.2917 197.688 24.7614C198.18 25.2235 198.555 25.7689 198.812 26.3977C199.07 27.0265 199.199 27.7121 199.199 28.4545V41H198.472V37.4545H198.381C198.017 38.2424 197.544 38.9318 196.96 39.5227C196.384 40.1061 195.718 40.5606 194.96 40.8864C194.21 41.2045 193.396 41.3636 192.517 41.3636ZM192.517 40.6364C193.623 40.6364 194.627 40.3409 195.528 39.75C196.43 39.1515 197.146 38.322 197.676 37.2614C198.206 36.1932 198.472 34.9545 198.472 33.5455V30.9091C198.259 31.0682 198.002 31.2083 197.699 31.3295C197.403 31.4508 197.066 31.5606 196.688 31.6591C196.316 31.75 195.911 31.8295 195.472 31.8977C195.032 31.9659 194.562 32.0303 194.062 32.0909C192.502 32.2727 191.275 32.5492 190.381 32.9205C189.487 33.2917 188.854 33.7576 188.483 34.3182C188.112 34.8788 187.926 35.5303 187.926 36.2727C187.926 37.5909 188.366 38.6477 189.244 39.4432C190.131 40.2386 191.222 40.6364 192.517 40.6364ZM211.739 41.3636C210.33 41.3636 209.072 40.9697 207.966 40.1818C206.867 39.3864 206 38.3068 205.364 36.9432C204.735 35.5795 204.42 34.0379 204.42 32.3182C204.42 30.6136 204.735 29.0795 205.364 27.7159C205.992 26.3447 206.856 25.2614 207.955 24.4659C209.061 23.6705 210.322 23.2727 211.739 23.2727C212.784 23.2727 213.742 23.5 214.614 23.9545C215.492 24.4015 216.227 25.0303 216.818 25.8409C217.409 26.6439 217.792 27.5758 217.966 28.6364H217.193C216.958 27.2652 216.333 26.1515 215.318 25.2955C214.311 24.4318 213.117 24 211.739 24C210.489 24 209.364 24.3636 208.364 25.0909C207.371 25.8106 206.587 26.7992 206.011 28.0568C205.436 29.3068 205.148 30.7273 205.148 32.3182C205.148 33.8636 205.424 35.2652 205.977 36.5227C206.538 37.7803 207.314 38.7803 208.307 39.5227C209.299 40.2652 210.443 40.6364 211.739 40.6364C212.67 40.6364 213.527 40.4432 214.307 40.0568C215.087 39.6629 215.735 39.1098 216.25 38.3977C216.773 37.6856 217.102 36.8561 217.239 35.9091H218.011C217.845 37.0076 217.466 37.9659 216.875 38.7841C216.284 39.6023 215.545 40.2386 214.659 40.6932C213.773 41.1402 212.799 41.3636 211.739 41.3636ZM223.699 33.9545V32.6364H223.972L233.244 23.5455H234.29L226.335 31.3636L226.244 31.4545L223.699 33.9545ZM223.153 41V17.7273H223.881V41H223.153ZM233.608 41L225.972 31.3636L226.517 30.9091L234.562 41H233.608Z" fill="#121138"/>
<defs>
<linearGradient id="paint0_linear_51_182" x1="16.1341" y1="32.4177" x2="46.664" y2="22.1983" gradientUnits="userSpaceOnUse">
<stop stop-color="#4EBE9D"/>
<stop offset="1" stop-color="#121138"/>
</linearGradient>
<linearGradient id="paint1_linear_51_182" x1="5.65184" y1="29.9999" x2="54.3481" y2="29.9999" gradientUnits="userSpaceOnUse">
<stop stop-color="#4EBE9D"/>
<stop offset="1" stop-color="#121138"/>
</linearGradient>
<linearGradient id="paint2_linear_51_182" x1="16.1341" y1="32.4179" x2="46.664" y2="22.1984" gradientUnits="userSpaceOnUse">
<stop stop-color="#4EBE9D"/>
<stop offset="1" stop-color="#121138"/>
</linearGradient>
<linearGradient id="paint3_linear_51_182" x1="16.1341" y1="32.4179" x2="46.664" y2="22.1984" gradientUnits="userSpaceOnUse">
<stop stop-color="#4EBE9D"/>
<stop offset="1" stop-color="#121138"/>
</linearGradient>
<linearGradient id="paint4_linear_51_182" x1="9.34999" y1="42.9" x2="50.6501" y2="17.0999" gradientUnits="userSpaceOnUse">
<stop stop-color="#4EBE9D"/>
<stop offset="1" stop-color="#121138"/>
</linearGradient>
<clipPath id="clip0_51_182">
<rect width="60" height="60" fill="white"/>
</clipPath>
<clipPath id="clip1_51_182">
<rect width="60" height="60" fill="white"/>
</clipPath>
</defs>
</svg>
