<?xml version="1.0" encoding="UTF-8" standalone="no"?>
<!DOCTYPE svg PUBLIC "-//W3C//DTD SVG 1.1//EN" "http://www.w3.org/Graphics/SVG/1.1/DTD/svg11.dtd">
<svg width="100%" height="100%" viewBox="0 0 1000 1000" version="1.1" xmlns="http://www.w3.org/2000/svg" xmlns:xlink="http://www.w3.org/1999/xlink" xml:space="preserve" xmlns:serif="http://www.serif.com/" style="fill-rule:evenodd;clip-rule:evenodd;stroke-linejoin:round;stroke-miterlimit:2;">
    <g transform="matrix(9.14918,0,0,9.14918,-415.751,-772.542)">
        <g id="g187">
            <g id="path179" transform="matrix(0.948284,-0.317423,0.317423,0.948284,-36.4249,34.0606)">
                <path d="M71.313,166.356C71.091,166.278 70.849,166.005 70.788,165.763C70.747,165.598 70.76,165.453 70.887,164.694C71.064,163.636 71.353,162.329 71.583,161.551C72.081,159.863 74.041,154.14 75.187,151.031C76.062,148.654 76.814,146.64 77.209,145.612C77.442,145.007 77.885,143.854 78.193,143.051C78.501,142.248 78.882,141.276 79.04,140.892C80.346,137.718 80.861,136.522 81.939,134.161C84.46,128.643 86.754,124.302 89.256,120.318C91.655,116.497 94.27,113.356 95.909,112.327C96.236,112.122 96.813,111.866 97.079,111.807C97.646,111.683 98.254,111.826 98.639,112.174C99.1,112.59 99.231,113.058 99.231,114.29C99.232,116.183 98.853,118.304 98.005,121.143C97.915,121.446 97.762,121.96 97.665,122.286C97.321,123.446 96.18,127.031 95.04,130.541C94.318,132.762 93.535,135.226 92.719,137.844C92.555,138.368 92.203,139.549 91.935,140.469C91.668,141.388 91.335,142.531 91.195,143.009C90.884,144.075 89.679,148.507 89.329,149.876C88.873,151.657 88.467,153.482 88.267,154.65C88.183,155.14 88.016,156.395 88.032,156.416C88.036,156.421 88.258,156.136 88.525,155.781C89.357,154.679 90.462,152.966 93.486,148.089C95.816,144.33 97.929,141.237 99.543,139.22C101.148,137.216 102.8,135.617 104.038,134.87C104.816,134.401 105.45,134.194 106.111,134.192C107.087,134.19 107.842,134.586 108.353,135.365C108.83,136.092 109.097,137.317 109.307,139.731C109.509,142.058 109.674,142.933 110.06,143.716C110.508,144.626 111.047,144.947 112.299,145.048C113.484,145.145 114.394,144.972 115.951,144.355C116.559,144.113 118.991,142.924 121.012,141.879C123.429,140.63 125.826,139.419 126.156,139.281C127.831,138.579 128.334,138.394 128.565,138.395C129.186,138.397 129.6,139.045 129.332,139.597C129.197,139.876 129.068,139.964 128.392,140.233C127.035,140.775 126.51,141.01 125.499,141.526C124.917,141.823 123.851,142.367 123.129,142.734C122.407,143.101 121.797,143.416 121.774,143.434C121.716,143.478 117.976,145.345 117.477,145.579C116.3,146.132 114.893,146.595 113.985,146.729C113.108,146.858 112.014,146.819 111.152,146.627C109.71,146.306 108.728,145.333 108.191,143.696C107.932,142.906 107.762,141.909 107.635,140.426C107.396,137.647 107.144,136.446 106.724,136.093C106.571,135.964 106.192,135.879 105.953,135.919C104.862,136.104 102.93,137.767 100.964,140.215C99.387,142.178 97.495,144.93 95.287,148.47C94.786,149.273 93.788,150.873 93.07,152.026C90.533,156.095 89.22,157.915 88.451,158.433C87.934,158.781 87.425,158.849 86.966,158.631C86.516,158.419 86.328,158.018 86.29,157.19C86.24,156.113 86.561,154.018 87.186,151.348C87.905,148.271 89.985,140.79 91.174,136.997C91.419,136.217 91.657,135.455 91.704,135.304C92.122,133.942 92.842,131.697 93.876,128.531C95.037,124.978 96.292,120.906 96.791,119.069C97.288,117.237 97.548,115.334 97.505,113.826L97.496,113.493L97.38,113.521C97.315,113.537 97.13,113.625 96.967,113.718C96.089,114.218 94.866,115.481 93.363,117.439C92.546,118.503 92.491,118.579 91.838,119.536C88.876,123.875 85.476,130.3 82.373,137.421C81.934,138.429 80.224,142.521 80.224,142.564C80.224,142.573 79.988,143.195 79.699,143.948C78.465,147.167 78.232,147.784 77.35,150.17C75.749,154.504 73.739,160.319 73.222,162.11C72.989,162.919 72.771,163.917 72.581,165.038C72.416,166.016 72.364,166.129 72.006,166.308C71.758,166.431 71.566,166.445 71.313,166.356L71.313,166.356Z" style="fill:url(#_Linear1);fill-rule:nonzero;stroke:url(#_Linear2);stroke-width:2.73px;"/>
            </g>
            <g transform="matrix(0.0926983,-0.0579084,0.0579084,0.0926983,24.7877,121.693)">
                <path d="M500,94.196C723.969,94.196 905.804,276.031 905.804,500C905.804,723.969 723.969,905.804 500,905.804C276.031,905.804 94.196,723.969 94.196,500C94.196,276.031 276.031,94.196 500,94.196ZM500,106.696C282.93,106.696 106.696,282.93 106.696,500C106.696,717.07 282.93,893.304 500,893.304C717.07,893.304 893.304,717.07 893.304,500C893.304,282.93 717.07,106.696 500,106.696Z" style="fill:url(#_Linear3);"/>
            </g>
        </g>
    </g>
    <defs>
        <linearGradient id="_Linear1" x1="0" y1="0" x2="1" y2="0" gradientUnits="userSpaceOnUse" gradientTransform="matrix(58.6481,0,0,54.6497,70.767,139.088)"><stop offset="0" style="stop-color:rgb(78,190,157);stop-opacity:1"/><stop offset="1" style="stop-color:rgb(18,17,56);stop-opacity:1"/></linearGradient>
        <linearGradient id="_Linear2" x1="0" y1="0" x2="1" y2="0" gradientUnits="userSpaceOnUse" gradientTransform="matrix(58.6481,0,0,54.6497,70.767,139.088)"><stop offset="0" style="stop-color:rgb(78,190,157);stop-opacity:1"/><stop offset="1" style="stop-color:rgb(18,17,56);stop-opacity:1"/></linearGradient>
        <linearGradient id="_Linear3" x1="0" y1="0" x2="1" y2="0" gradientUnits="userSpaceOnUse" gradientTransform="matrix(811.608,0,0,811.608,94.1958,500)"><stop offset="0" style="stop-color:rgb(78,190,157);stop-opacity:1"/><stop offset="1" style="stop-color:rgb(18,17,56);stop-opacity:1"/></linearGradient>
    </defs>
</svg>
